<?xml version="1.0" encoding="UTF-8"?>
<!DOCTYPE svg PUBLIC "-//W3C//DTD SVG 1.1//EN" "http://www.w3.org/Graphics/SVG/1.1/DTD/svg11.dtd">
<svg xmlns="http://www.w3.org/2000/svg" version="1.1" width="176px" height="176px" style="shape-rendering:geometricPrecision; text-rendering:geometricPrecision; image-rendering:optimizeQuality; fill-rule:evenodd; clip-rule:evenodd" xmlns:xlink="http://www.w3.org/1999/xlink">
<g><path style="opacity:1" fill="#fafafa" d="M -0.5,-0.5 C 26.1667,-0.5 52.8333,-0.5 79.5,-0.5C 35.9555,6.2093 9.78886,31.2093 1,74.5C 0.500344,81.8258 0.333677,89.1591 0.5,96.5C 0.166667,96.5 -0.166667,96.5 -0.5,96.5C -0.5,64.1667 -0.5,31.8333 -0.5,-0.5 Z"/></g>
<g><path style="opacity:1" fill="#fbfbfb" d="M 95.5,-0.5 C 122.167,-0.5 148.833,-0.5 175.5,-0.5C 175.5,24.8333 175.5,50.1667 175.5,75.5C 166.024,32.0225 139.357,6.68917 95.5,-0.5 Z"/></g>
<g><path style="opacity:1" fill="#140f33" d="M 79.5,-0.5 C 84.8333,-0.5 90.1667,-0.5 95.5,-0.5C 139.357,6.68917 166.024,32.0225 175.5,75.5C 175.5,82.8333 175.5,90.1667 175.5,97.5C 167.074,144.593 139.074,170.593 91.5,175.5C 88.1667,175.5 84.8333,175.5 81.5,175.5C 41.6699,170.516 15.5032,148.849 3,110.5C 2.05678,105.84 1.22344,101.173 0.5,96.5C 0.333677,89.1591 0.500344,81.8258 1,74.5C 9.78886,31.2093 35.9555,6.2093 79.5,-0.5 Z"/></g>
<g><path style="opacity:1" fill="#6e0f11" d="M 161.5,109.5 C 160.71,108.391 160.21,107.058 160,105.5C 158.827,108.41 156.994,109.077 154.5,107.5C 155.129,106.558 153.795,106.225 150.5,106.5C 148.048,106.539 146.048,107.206 144.5,108.5C 144.539,109.756 144.039,110.756 143,111.5C 142.293,109.919 141.46,108.419 140.5,107C 139.056,106.219 137.723,106.386 136.5,107.5C 137.513,109.527 138.513,111.527 139.5,113.5C 135.619,116.378 135.619,119.378 139.5,122.5C 138.009,123.244 136.509,123.91 135,124.5C 135.617,122.905 135.284,121.572 134,120.5C 133.626,121.416 133.126,122.25 132.5,123C 130.257,123.797 128.923,123.63 128.5,122.5C 129.822,122.67 130.989,122.337 132,121.5C 133.967,117.599 135.3,113.599 136,109.5C 134.431,115.055 132.931,115.388 131.5,110.5C 130.833,110.167 130.167,109.833 129.5,109.5C 128.287,109.747 127.62,110.414 127.5,111.5C 126.024,109.568 124.357,109.235 122.5,110.5C 122.167,110.5 121.833,110.5 121.5,110.5C 119.909,109.781 118.409,108.781 117,107.5C 115.951,108.517 114.784,108.684 113.5,108C 114.833,107.333 114.833,106.667 113.5,106C 109.489,105.834 108.989,105 112,103.5C 114.075,104.895 115.908,104.562 117.5,102.5C 118.468,103.489 119.635,104.156 121,104.5C 123.089,103.555 125.089,103.555 127,104.5C 129.683,103.425 129.849,102.425 127.5,101.5C 125.646,102.073 123.813,102.407 122,102.5C 121.25,101.874 120.416,101.374 119.5,101C 123.688,100.824 127.688,100.324 131.5,99.5C 131.5,97.5 131.5,95.5 131.5,93.5C 127.145,76.7451 122.478,60.0785 117.5,43.5C 115.19,42.8362 112.69,42.5029 110,42.5C 107.071,42.5248 104.571,43.1914 102.5,44.5C 97.5692,58.1976 93.2359,72.1976 89.5,86.5C 87.8333,86.5 86.1667,86.5 84.5,86.5C 84.6602,88.1992 84.4935,89.8659 84,91.5C 83.31,92.7383 82.81,92.7383 82.5,91.5C 82.5,91.1667 82.5,90.8333 82.5,90.5C 82.5,90.1667 82.5,89.8333 82.5,89.5C 83.2341,88.2921 83.5674,86.9587 83.5,85.5C 84.746,82.7067 84.4127,80.04 82.5,77.5C 81.8486,74.197 80.182,71.5303 77.5,69.5C 70.1218,65.1371 62.4552,61.1371 54.5,57.5C 54.0679,56.2905 53.4013,55.2905 52.5,54.5C 52.5,54.1667 52.5,53.8333 52.5,53.5C 52.5,52.1667 52.5,50.8333 52.5,49.5C 58.3769,44.7378 64.7103,44.2378 71.5,48C 72.0848,49.3024 72.7515,50.469 73.5,51.5C 73.6741,53.861 74.0074,56.1944 74.5,58.5C 75.7183,59.5626 77.7183,59.5626 80.5,58.5C 81.404,57.791 81.7373,56.791 81.5,55.5C 81.1249,53.3024 80.4582,51.3024 79.5,49.5C 79.0432,47.2273 77.7099,45.894 75.5,45.5C 73.6146,43.6885 71.2813,42.5218 68.5,42C 63.9796,41.1864 59.6463,41.353 55.5,42.5C 53.2972,42.6036 51.2972,43.2702 49.5,44.5C 48.1667,45.1667 47.1667,46.1667 46.5,47.5C 44.1782,48.8021 42.8449,50.8021 42.5,53.5C 42.4431,54.609 42.1098,55.609 41.5,56.5C 41.3107,60.037 41.9774,63.3703 43.5,66.5C 48.236,73.7125 54.9027,78.2125 63.5,80C 65.8636,81.8419 68.1969,83.6753 70.5,85.5C 70.5,86.5 70.5,87.5 70.5,88.5C 70.5,89.5 70.5,90.5 70.5,91.5C 69.5987,92.2905 68.9321,93.2905 68.5,94.5C 64.3431,96.0624 60.0097,96.729 55.5,96.5C 54.4863,95.3263 53.153,94.6596 51.5,94.5C 51.2671,92.9382 50.6005,91.6049 49.5,90.5C 48.8902,89.609 48.5569,88.609 48.5,87.5C 48.8051,84.586 48.8051,81.9193 48.5,79.5C 45.8478,79.4095 43.5145,80.0762 41.5,81.5C 41.3354,84.5184 41.502,87.5184 42,90.5C 42.2784,91.4158 42.7784,92.0825 43.5,92.5C 44.8803,95.5517 47.2136,97.7183 50.5,99C 56.7688,100.257 63.1021,100.757 69.5,100.5C 71.924,100.192 74.2573,100.526 76.5,101.5C 75.624,102.251 74.624,102.751 73.5,103C 74.8333,103.667 76.1667,104.333 77.5,105C 75.3911,106.141 73.5578,107.641 72,109.5C 71.5831,108.244 70.7498,107.577 69.5,107.5C 69.1667,107.5 68.8333,107.5 68.5,107.5C 67.6136,106.224 66.6136,106.224 65.5,107.5C 64.6751,109.801 64.0084,112.135 63.5,114.5C 62.6908,116.028 62.0241,117.694 61.5,119.5C 60.8365,117.958 60.1698,116.291 59.5,114.5C 58.8492,116.847 57.5159,118.514 55.5,119.5C 55.5,115.167 55.5,110.833 55.5,106.5C 53.8333,106.5 52.1667,106.5 50.5,106.5C 50.5,107.833 50.5,109.167 50.5,110.5C 49.596,111.209 49.2627,112.209 49.5,113.5C 48.5,113.5 47.5,113.5 46.5,113.5C 46.5,112.5 46.5,111.5 46.5,110.5C 46.5,109.167 46.5,107.833 46.5,106.5C 44.901,106.232 43.5676,106.566 42.5,107.5C 41.8333,107.5 41.1667,107.5 40.5,107.5C 38.6096,107.703 37.1096,107.037 36,105.5C 34.9148,106.293 33.7481,106.96 32.5,107.5C 32.8919,109.75 32.2252,111.916 30.5,114C 30.528,115.07 30.8614,115.903 31.5,116.5C 31.5,116.833 31.5,117.167 31.5,117.5C 31.44,118.043 31.1067,118.376 30.5,118.5C 29.7189,117.271 29.2189,115.938 29,114.5C 28.8784,116.437 28.045,117.77 26.5,118.5C 26.5,114.5 26.5,110.5 26.5,106.5C 23.9897,106.991 21.6564,107.991 19.5,109.5C 19.9377,110.506 20.6043,110.506 21.5,109.5C 22.48,112.086 22.8134,114.753 22.5,117.5C 20.8311,115.338 18.8311,115.005 16.5,116.5C 3.72261,76.6648 14.3893,44.8314 48.5,21C 84.7225,3.25483 117.223,8.4215 146,36.5C 163.371,58.1869 168.538,82.5202 161.5,109.5 Z"/></g>
<g><path style="opacity:1" fill="#6e5128" d="M 75.5,45.5 C 74.3684,46.3543 73.035,46.3543 71.5,45.5C 65.7567,45.3165 60.4234,44.3165 55.5,42.5C 59.6463,41.353 63.9796,41.1864 68.5,42C 71.2813,42.5218 73.6146,43.6885 75.5,45.5 Z"/></g>
<g><path style="opacity:1" fill="#846639" d="M 117.5,43.5 C 115.364,45.8123 113.364,48.3123 111.5,51C 112.252,51.6708 112.586,52.5041 112.5,53.5C 111.833,53.5 111.167,53.5 110.5,53.5C 110.5,52.5 110.5,51.5 110.5,50.5C 109.022,50.762 107.689,50.4287 106.5,49.5C 105.867,47.2145 104.534,45.5478 102.5,44.5C 104.571,43.1914 107.071,42.5248 110,42.5C 112.69,42.5029 115.19,42.8362 117.5,43.5 Z"/></g>
<g><path style="opacity:1" fill="#302410" d="M 55.5,42.5 C 60.4234,44.3165 65.7567,45.3165 71.5,45.5C 72.4558,46.6594 73.4558,47.8261 74.5,49C 74.2568,49.9021 73.9234,50.7354 73.5,51.5C 72.7515,50.469 72.0848,49.3024 71.5,48C 64.7103,44.2378 58.3769,44.7378 52.5,49.5C 51.2935,48.1196 51.6269,46.9529 53.5,46C 52.451,45.5078 51.451,45.6744 50.5,46.5C 49.7025,46.0431 49.3691,45.3764 49.5,44.5C 51.2972,43.2702 53.2972,42.6036 55.5,42.5 Z"/></g>
<g><path style="opacity:1" fill="#7a562f" d="M 49.5,44.5 C 49.3691,45.3764 49.7025,46.0431 50.5,46.5C 51.451,45.6744 52.451,45.5078 53.5,46C 51.6269,46.9529 51.2935,48.1196 52.5,49.5C 50.7179,48.2804 48.7179,47.6138 46.5,47.5C 47.1667,46.1667 48.1667,45.1667 49.5,44.5 Z"/></g>
<g><path style="opacity:1" fill="#d8b589" d="M 46.5,47.5 C 48.7179,47.6138 50.7179,48.2804 52.5,49.5C 52.5,50.8333 52.5,52.1667 52.5,53.5C 49.0928,54.2154 45.7595,54.2154 42.5,53.5C 42.8449,50.8021 44.1782,48.8021 46.5,47.5 Z"/></g>
<g><path style="opacity:1" fill="#c6a071" d="M 71.5,45.5 C 73.035,46.3543 74.3684,46.3543 75.5,45.5C 77.7099,45.894 79.0432,47.2273 79.5,49.5C 78.3702,51.3146 77.7036,53.3146 77.5,55.5C 78.8333,55.5 80.1667,55.5 81.5,55.5C 81.7373,56.791 81.404,57.791 80.5,58.5C 78.6409,55.9814 76.6409,55.9814 74.5,58.5C 74.0074,56.1944 73.6741,53.861 73.5,51.5C 73.9234,50.7354 74.2568,49.9021 74.5,49C 73.4558,47.8261 72.4558,46.6594 71.5,45.5 Z"/></g>
<g><path style="opacity:1" fill="#453218" d="M 79.5,49.5 C 80.4582,51.3024 81.1249,53.3024 81.5,55.5C 80.1667,55.5 78.8333,55.5 77.5,55.5C 77.7036,53.3146 78.3702,51.3146 79.5,49.5 Z"/></g>
<g><path style="opacity:1" fill="#4a371d" d="M 42.5,53.5 C 45.7595,54.2154 49.0928,54.2154 52.5,53.5C 52.5,53.8333 52.5,54.1667 52.5,54.5C 49.1108,56.22 45.4441,56.8866 41.5,56.5C 42.1098,55.609 42.4431,54.609 42.5,53.5 Z"/></g>
<g><path style="opacity:1" fill="#dcbd8f" d="M 52.5,54.5 C 53.4013,55.2905 54.0679,56.2905 54.5,57.5C 53.1902,59.1477 51.8569,60.8144 50.5,62.5C 50.7093,63.086 51.0426,63.586 51.5,64C 48.7084,64.5423 46.0417,65.3756 43.5,66.5C 41.9774,63.3703 41.3107,60.037 41.5,56.5C 45.4441,56.8866 49.1108,56.22 52.5,54.5 Z"/></g>
<g><path style="opacity:1" fill="#392a17" d="M 80.5,58.5 C 77.7183,59.5626 75.7183,59.5626 74.5,58.5C 76.6409,55.9814 78.6409,55.9814 80.5,58.5 Z"/></g>
<g><path style="opacity:1" fill="#47341c" d="M 102.5,44.5 C 104.534,45.5478 105.867,47.2145 106.5,49.5C 107.689,50.4287 109.022,50.762 110.5,50.5C 110.5,51.5 110.5,52.5 110.5,53.5C 107.565,54.6232 104.565,55.6232 101.5,56.5C 98.6969,64.7136 96.3636,73.0469 94.5,81.5C 93.596,82.209 93.2627,83.209 93.5,84.5C 102.208,84.7445 110.874,84.4112 119.5,83.5C 117.5,84.8333 115.5,86.1667 113.5,87.5C 107.5,87.5 101.5,87.5 95.5,87.5C 94.828,86.7326 93.9947,86.0659 93,85.5C 91.8749,89.553 90.3749,93.3864 88.5,97C 89.9423,97.3768 90.9423,98.2101 91.5,99.5C 89.5328,99.2606 87.6995,99.5939 86,100.5C 86.8336,95.8324 88.0002,91.1657 89.5,86.5C 93.2359,72.1976 97.5692,58.1976 102.5,44.5 Z"/></g>
<g><path style="opacity:1" fill="#ead3a9" d="M 110.5,53.5 C 111.167,53.5 111.833,53.5 112.5,53.5C 115.147,62.7559 117.481,72.0893 119.5,81.5C 116.833,81.5 114.167,81.5 111.5,81.5C 109.036,73.6032 106.869,65.6032 105,57.5C 102.324,64.6924 100.158,72.0258 98.5,79.5C 97.5326,80.8062 96.1993,81.4729 94.5,81.5C 96.3636,73.0469 98.6969,64.7136 101.5,56.5C 104.565,55.6232 107.565,54.6232 110.5,53.5 Z"/></g>
<g><path style="opacity:1" fill="#43361f" d="M 117.5,43.5 C 122.478,60.0785 127.145,76.7451 131.5,93.5C 129.265,93.2053 127.265,93.5386 125.5,94.5C 124.5,93.8333 123.5,93.1667 122.5,92.5C 122.244,89.4021 121.578,86.4021 120.5,83.5C 120.672,82.5084 120.338,81.8417 119.5,81.5C 117.481,72.0893 115.147,62.7559 112.5,53.5C 112.586,52.5041 112.252,51.6708 111.5,51C 113.364,48.3123 115.364,45.8123 117.5,43.5 Z"/></g>
<g><path style="opacity:1" fill="#6e0e0f" d="M 111.5,81.5 C 106.706,82.0969 102.373,81.4302 98.5,79.5C 100.158,72.0258 102.324,64.6924 105,57.5C 106.869,65.6032 109.036,73.6032 111.5,81.5 Z"/></g>
<g><path style="opacity:1" fill="#423620" d="M 54.5,57.5 C 62.4552,61.1371 70.1218,65.1371 77.5,69.5C 74.9438,70.5434 72.7772,72.2101 71,74.5C 70.2825,73.5494 69.4491,73.3828 68.5,74C 70.792,75.2899 72.792,76.9565 74.5,79C 77.4976,79.8907 80.1643,79.3907 82.5,77.5C 84.4127,80.04 84.746,82.7067 83.5,85.5C 83.5,84.1667 83.5,82.8333 83.5,81.5C 80.8806,81.7683 78.3806,81.435 76,80.5C 75.1213,83.1934 73.288,84.8601 70.5,85.5C 68.1969,83.6753 65.8636,81.8419 63.5,80C 54.9027,78.2125 48.236,73.7125 43.5,66.5C 46.0417,65.3756 48.7084,64.5423 51.5,64C 51.0426,63.586 50.7093,63.086 50.5,62.5C 51.8569,60.8144 53.1902,59.1477 54.5,57.5 Z"/></g>
<g><path style="opacity:1" fill="#e4c695" d="M 77.5,69.5 C 80.182,71.5303 81.8486,74.197 82.5,77.5C 80.1643,79.3907 77.4976,79.8907 74.5,79C 72.792,76.9565 70.792,75.2899 68.5,74C 69.4491,73.3828 70.2825,73.5494 71,74.5C 72.7772,72.2101 74.9438,70.5434 77.5,69.5 Z"/></g>
<g><path style="opacity:1" fill="#78592b" d="M 48.5,79.5 C 46.8781,83.504 44.5447,84.1706 41.5,81.5C 43.5145,80.0762 45.8478,79.4095 48.5,79.5 Z"/></g>
<g><path style="opacity:1" fill="#917246" d="M 98.5,79.5 C 102.373,81.4302 106.706,82.0969 111.5,81.5C 114.167,81.5 116.833,81.5 119.5,81.5C 120.338,81.8417 120.672,82.5084 120.5,83.5C 120.167,83.5 119.833,83.5 119.5,83.5C 110.874,84.4112 102.208,84.7445 93.5,84.5C 93.2627,83.209 93.596,82.209 94.5,81.5C 96.1993,81.4729 97.5326,80.8062 98.5,79.5 Z"/></g>
<g><path style="opacity:1" fill="#dfc494" d="M 83.5,85.5 C 83.5674,86.9587 83.2341,88.2921 82.5,89.5C 78.5483,88.7279 74.5483,88.3946 70.5,88.5C 70.5,87.5 70.5,86.5 70.5,85.5C 73.288,84.8601 75.1213,83.1934 76,80.5C 78.3806,81.435 80.8806,81.7683 83.5,81.5C 83.5,82.8333 83.5,84.1667 83.5,85.5 Z"/></g>
<g><path style="opacity:1" fill="#cfac7d" d="M 95.5,87.5 C 94.765,91.8047 93.4317,95.8047 91.5,99.5C 90.9423,98.2101 89.9423,97.3768 88.5,97C 90.3749,93.3864 91.8749,89.553 93,85.5C 93.9947,86.0659 94.828,86.7326 95.5,87.5 Z"/></g>
<g><path style="opacity:1" fill="#3e2d15" d="M 48.5,87.5 C 48.5569,88.609 48.8902,89.609 49.5,90.5C 48.1667,90.5 46.8333,90.5 45.5,90.5C 45.5,89.5 45.5,88.5 45.5,87.5C 46.5,87.5 47.5,87.5 48.5,87.5 Z"/></g>
<g><path style="opacity:1" fill="#6c5530" d="M 70.5,88.5 C 74.5483,88.3946 78.5483,88.7279 82.5,89.5C 82.5,89.8333 82.5,90.1667 82.5,90.5C 80.5328,90.7394 78.6995,90.4061 77,89.5C 76.3028,91.5844 75.1361,93.2511 73.5,94.5C 72.5,93.5 71.5,92.5 70.5,91.5C 70.5,90.5 70.5,89.5 70.5,88.5 Z"/></g>
<g><path style="opacity:1" fill="#caa779" d="M 48.5,79.5 C 48.8051,81.9193 48.8051,84.586 48.5,87.5C 47.5,87.5 46.5,87.5 45.5,87.5C 45.5,88.5 45.5,89.5 45.5,90.5C 46.8333,90.5 48.1667,90.5 49.5,90.5C 50.6005,91.6049 51.2671,92.9382 51.5,94.5C 51.1205,95.1331 50.7871,95.7997 50.5,96.5C 48.6187,94.2663 46.2853,92.933 43.5,92.5C 42.7784,92.0825 42.2784,91.4158 42,90.5C 41.502,87.5184 41.3354,84.5184 41.5,81.5C 44.5447,84.1706 46.8781,83.504 48.5,79.5 Z"/></g>
<g><path style="opacity:1" fill="#d9be90" d="M 119.5,83.5 C 119.833,83.5 120.167,83.5 120.5,83.5C 121.578,86.4021 122.244,89.4021 122.5,92.5C 120.844,94.4602 119.177,96.4602 117.5,98.5C 115.115,95.3465 113.782,91.6799 113.5,87.5C 115.5,86.1667 117.5,84.8333 119.5,83.5 Z"/></g>
<g><path style="opacity:1" fill="#cbaa7d" d="M 70.5,91.5 C 71.5,92.5 72.5,93.5 73.5,94.5C 72.078,95.925 70.4113,96.925 68.5,97.5C 69.8333,96.5 69.8333,95.5 68.5,94.5C 68.9321,93.2905 69.5987,92.2905 70.5,91.5 Z"/></g>
<g><path style="opacity:1" fill="#c59f6a" d="M 125.5,94.5 C 127.265,93.5386 129.265,93.2053 131.5,93.5C 131.5,95.5 131.5,97.5 131.5,99.5C 131.167,99.5 130.833,99.5 130.5,99.5C 129.167,97.5 127.5,95.8333 125.5,94.5 Z"/></g>
<g><path style="opacity:1" fill="#2d230f" d="M 82.5,90.5 C 82.5,90.8333 82.5,91.1667 82.5,91.5C 78.9718,95.6999 74.6385,98.6999 69.5,100.5C 63.1021,100.757 56.7688,100.257 50.5,99C 47.2136,97.7183 44.8803,95.5517 43.5,92.5C 46.2853,92.933 48.6187,94.2663 50.5,96.5C 50.7871,95.7997 51.1205,95.1331 51.5,94.5C 53.153,94.6596 54.4863,95.3263 55.5,96.5C 55.0825,97.2216 54.4158,97.7216 53.5,98C 58.7076,100.106 63.7076,99.9389 68.5,97.5C 70.4113,96.925 72.078,95.925 73.5,94.5C 75.1361,93.2511 76.3028,91.5844 77,89.5C 78.6995,90.4061 80.5328,90.7394 82.5,90.5 Z"/></g>
<g><path style="opacity:1" fill="#281d0a" d="M 122.5,92.5 C 123.5,93.1667 124.5,93.8333 125.5,94.5C 127.5,95.8333 129.167,97.5 130.5,99.5C 125.968,99.8182 121.634,99.4849 117.5,98.5C 119.177,96.4602 120.844,94.4602 122.5,92.5 Z"/></g>
<g><path style="opacity:1" fill="#70532b" d="M 68.5,94.5 C 69.8333,95.5 69.8333,96.5 68.5,97.5C 63.7076,99.9389 58.7076,100.106 53.5,98C 54.4158,97.7216 55.0825,97.2216 55.5,96.5C 60.0097,96.729 64.3431,96.0624 68.5,94.5 Z"/></g>
<g><path style="opacity:1" fill="#fbfbfb" d="M 175.5,97.5 C 175.5,123.5 175.5,149.5 175.5,175.5C 147.5,175.5 119.5,175.5 91.5,175.5C 139.074,170.593 167.074,144.593 175.5,97.5 Z"/></g>
<g><path style="opacity:1" fill="#c89f6c" d="M 26.5,118.5 C 24.901,118.768 23.5676,118.434 22.5,117.5C 22.8134,114.753 22.48,112.086 21.5,109.5C 20.6043,110.506 19.9377,110.506 19.5,109.5C 21.6564,107.991 23.9897,106.991 26.5,106.5C 26.5,110.5 26.5,114.5 26.5,118.5 Z"/></g>
<g><path style="opacity:1" fill="#6f1811" d="M 37.5,115.5 C 36.5,119.5 35.5,119.5 34.5,115.5C 35.5,104.833 36.5,104.833 37.5,115.5 Z"/></g>
<g><path style="opacity:1" fill="#fbfbfb" d="M -0.5,96.5 C -0.166667,96.5 0.166667,96.5 0.5,96.5C 1.22344,101.173 2.05678,105.84 3,110.5C 15.5032,148.849 41.6699,170.516 81.5,175.5C 54.1667,175.5 26.8333,175.5 -0.5,175.5C -0.5,149.167 -0.5,122.833 -0.5,96.5 Z"/></g>
<g><path style="opacity:1" fill="#a0734a" d="M 46.5,110.5 C 45.6236,110.369 44.9569,110.702 44.5,111.5C 45.1272,112.417 45.4606,113.417 45.5,114.5C 44.8365,116.042 44.1698,117.709 43.5,119.5C 42.5091,115.555 42.1758,111.555 42.5,107.5C 43.5676,106.566 44.901,106.232 46.5,106.5C 46.5,107.833 46.5,109.167 46.5,110.5 Z"/></g>
<g><path style="opacity:1" fill="#d0a87a" d="M 40.5,107.5 C 40.4606,108.583 40.1272,109.583 39.5,110.5C 42.0675,112.765 42.0675,114.765 39.5,116.5C 38.8333,116.167 38.1667,115.833 37.5,115.5C 36.5,104.833 35.5,104.833 34.5,115.5C 33.609,116.11 32.609,116.443 31.5,116.5C 30.8614,115.903 30.528,115.07 30.5,114C 32.2252,111.916 32.8919,109.75 32.5,107.5C 33.7481,106.96 34.9148,106.293 36,105.5C 37.1096,107.037 38.6096,107.703 40.5,107.5 Z"/></g>
<g><path style="opacity:1" fill="#c09f76" d="M 68.5,107.5 C 68.467,110.836 69.1336,114.003 70.5,117C 69.9558,117.717 69.2891,118.217 68.5,118.5C 68.5,118.167 68.5,117.833 68.5,117.5C 67.9695,115.076 67.1362,112.743 66,110.5C 65.7097,112.919 64.8763,114.253 63.5,114.5C 64.0084,112.135 64.6751,109.801 65.5,107.5C 66.6136,106.224 67.6136,106.224 68.5,107.5 Z"/></g>
<g><path style="opacity:1" fill="#9b6c45" d="M 55.5,119.5 C 54.8333,119.5 54.5,119.167 54.5,118.5C 54.6653,114.818 54.4986,111.152 54,107.5C 53.2411,109.063 52.0744,110.063 50.5,110.5C 50.5,109.167 50.5,107.833 50.5,106.5C 52.1667,106.5 53.8333,106.5 55.5,106.5C 55.5,110.833 55.5,115.167 55.5,119.5 Z"/></g>
<g><path style="opacity:1" fill="#6e0f11" d="M 89.5,86.5 C 88.0002,91.1657 86.8336,95.8324 86,100.5C 87.6995,99.5939 89.5328,99.2606 91.5,99.5C 93.4317,95.8047 94.765,91.8047 95.5,87.5C 101.5,87.5 107.5,87.5 113.5,87.5C 113.782,91.6799 115.115,95.3465 117.5,98.5C 121.634,99.4849 125.968,99.8182 130.5,99.5C 130.833,99.5 131.167,99.5 131.5,99.5C 127.688,100.324 123.688,100.824 119.5,101C 120.416,101.374 121.25,101.874 122,102.5C 123.813,102.407 125.646,102.073 127.5,101.5C 129.849,102.425 129.683,103.425 127,104.5C 125.089,103.555 123.089,103.555 121,104.5C 119.635,104.156 118.468,103.489 117.5,102.5C 115.908,104.562 114.075,104.895 112,103.5C 108.989,105 109.489,105.834 113.5,106C 114.833,106.667 114.833,107.333 113.5,108C 114.784,108.684 115.951,108.517 117,107.5C 118.409,108.781 119.909,109.781 121.5,110.5C 121.833,110.5 122.167,110.5 122.5,110.5C 123.317,112.969 123.817,115.635 124,118.5C 125.147,117.542 126.147,117.875 127,119.5C 127.497,116.854 127.664,114.187 127.5,111.5C 129.006,113.975 130.339,116.642 131.5,119.5C 130.965,121.271 130.131,121.604 129,120.5C 128.536,121.094 128.369,121.761 128.5,122.5C 128.923,123.63 130.257,123.797 132.5,123C 133.126,122.25 133.626,121.416 134,120.5C 135.284,121.572 135.617,122.905 135,124.5C 136.509,123.91 138.009,123.244 139.5,122.5C 135.619,119.378 135.619,116.378 139.5,113.5C 139.34,115.199 139.506,116.866 140,118.5C 141,117.167 142,117.167 143,118.5C 143.558,115.066 144.391,111.733 145.5,108.5C 146.708,107.766 148.041,107.433 149.5,107.5C 149.335,111.182 149.501,114.848 150,118.5C 151,117.167 152,117.167 153,118.5C 153.499,114.848 153.665,111.182 153.5,107.5C 153.833,107.5 154.167,107.5 154.5,107.5C 156.994,109.077 158.827,108.41 160,105.5C 160.21,107.058 160.71,108.391 161.5,109.5C 149.253,144.312 124.586,162.646 87.5,164.5C 54.1044,162.652 30.4377,146.652 16.5,116.5C 18.8311,115.005 20.8311,115.338 22.5,117.5C 23.5676,118.434 24.901,118.768 26.5,118.5C 28.045,117.77 28.8784,116.437 29,114.5C 29.2189,115.938 29.7189,117.271 30.5,118.5C 31.1067,118.376 31.44,118.043 31.5,117.5C 33.0936,117.92 34.5936,118.586 36,119.5C 37.9497,119.293 39.1164,118.293 39.5,116.5C 42.0675,114.765 42.0675,112.765 39.5,110.5C 40.1272,109.583 40.4606,108.583 40.5,107.5C 41.1667,107.5 41.8333,107.5 42.5,107.5C 42.1758,111.555 42.5091,115.555 43.5,119.5C 44.1698,117.709 44.8365,116.042 45.5,114.5C 45.1667,117.5 46.5,118.833 49.5,118.5C 50.6264,110.601 51.4598,110.601 52,118.5C 52.7697,117.402 53.603,117.402 54.5,118.5C 54.5,119.167 54.8333,119.5 55.5,119.5C 57.5159,118.514 58.8492,116.847 59.5,114.5C 60.1698,116.291 60.8365,117.958 61.5,119.5C 62.9928,118.555 64.4928,117.555 66,116.5C 66.9021,116.743 67.7354,117.077 68.5,117.5C 68.5,117.833 68.5,118.167 68.5,118.5C 69.7082,119.782 71.0416,119.782 72.5,118.5C 70.8833,114.986 69.8833,111.319 69.5,107.5C 70.7498,107.577 71.5831,108.244 72,109.5C 73.5578,107.641 75.3911,106.141 77.5,105C 76.1667,104.333 74.8333,103.667 73.5,103C 74.624,102.751 75.624,102.251 76.5,101.5C 74.2573,100.526 71.924,100.192 69.5,100.5C 74.6385,98.6999 78.9718,95.6999 82.5,91.5C 82.81,92.7383 83.31,92.7383 84,91.5C 84.4935,89.8659 84.6602,88.1992 84.5,86.5C 86.1667,86.5 87.8333,86.5 89.5,86.5 Z"/></g>
<g><path style="opacity:1" fill="#bb905a" d="M 128.5,122.5 C 128.369,121.761 128.536,121.094 129,120.5C 130.131,121.604 130.965,121.271 131.5,119.5C 130.339,116.642 129.006,113.975 127.5,111.5C 127.62,110.414 128.287,109.747 129.5,109.5C 130.167,109.833 130.833,110.167 131.5,110.5C 132.931,115.388 134.431,115.055 136,109.5C 135.3,113.599 133.967,117.599 132,121.5C 130.989,122.337 129.822,122.67 128.5,122.5 Z"/></g>
<g><path style="opacity:1" fill="#e7c18b" d="M 121.5,110.5 C 121.664,113.187 121.497,115.854 121,118.5C 120.333,117.167 119.667,117.167 119,118.5C 118.503,115.854 118.336,113.187 118.5,110.5C 119.5,110.5 120.5,110.5 121.5,110.5 Z"/></g>
<g><path style="opacity:1" fill="#d1a674" d="M 112.5,109.5 C 114.429,109.231 116.095,109.731 117.5,111C 116.565,113.381 116.232,115.881 116.5,118.5C 115.167,118.5 113.833,118.5 112.5,118.5C 112.5,115.5 112.5,112.5 112.5,109.5 Z"/></g>
<g><path style="opacity:1" fill="#735733" d="M 34.5,115.5 C 35.5,119.5 36.5,119.5 37.5,115.5C 38.1667,115.833 38.8333,116.167 39.5,116.5C 39.1164,118.293 37.9497,119.293 36,119.5C 34.5936,118.586 33.0936,117.92 31.5,117.5C 31.5,117.167 31.5,116.833 31.5,116.5C 32.609,116.443 33.609,116.11 34.5,115.5 Z"/></g>
<g><path style="opacity:1" fill="#885a3b" d="M 68.5,117.5 C 67.7354,117.077 66.9021,116.743 66,116.5C 64.4928,117.555 62.9928,118.555 61.5,119.5C 62.0241,117.694 62.6908,116.028 63.5,114.5C 64.8763,114.253 65.7097,112.919 66,110.5C 67.1362,112.743 67.9695,115.076 68.5,117.5 Z"/></g>
<g><path style="opacity:1" fill="#dab284" d="M 54.5,118.5 C 53.603,117.402 52.7697,117.402 52,118.5C 51.4598,110.601 50.6264,110.601 49.5,118.5C 46.5,118.833 45.1667,117.5 45.5,114.5C 45.4606,113.417 45.1272,112.417 44.5,111.5C 44.9569,110.702 45.6236,110.369 46.5,110.5C 46.5,111.5 46.5,112.5 46.5,113.5C 47.5,113.5 48.5,113.5 49.5,113.5C 49.2627,112.209 49.596,111.209 50.5,110.5C 52.0744,110.063 53.2411,109.063 54,107.5C 54.4986,111.152 54.6653,114.818 54.5,118.5 Z"/></g>
<g><path style="opacity:1" fill="#dab177" d="M 149.5,107.5 C 150.702,108.405 152.036,108.405 153.5,107.5C 153.665,111.182 153.499,114.848 153,118.5C 152,117.167 151,117.167 150,118.5C 149.501,114.848 149.335,111.182 149.5,107.5 Z"/></g>
<g><path style="opacity:1" fill="#c49d6f" d="M 75.5,117.5 C 73.7483,117.582 72.7483,116.749 72.5,115C 74.076,109.226 77.076,108.226 81.5,112C 79.9562,111.513 78.2895,111.013 76.5,110.5C 76.702,112.95 76.3686,115.283 75.5,117.5 Z"/></g>
<g><path style="opacity:1" fill="#3f2a13" d="M 68.5,107.5 C 68.8333,107.5 69.1667,107.5 69.5,107.5C 69.8833,111.319 70.8833,114.986 72.5,118.5C 71.0416,119.782 69.7082,119.782 68.5,118.5C 69.2891,118.217 69.9558,117.717 70.5,117C 69.1336,114.003 68.467,110.836 68.5,107.5 Z"/></g>
<g><path style="opacity:1" fill="#c49a68" d="M 122.5,110.5 C 124.357,109.235 126.024,109.568 127.5,111.5C 127.664,114.187 127.497,116.854 127,119.5C 126.147,117.875 125.147,117.542 124,118.5C 123.817,115.635 123.317,112.969 122.5,110.5 Z"/></g>
<g><path style="opacity:1" fill="#bb9565" d="M 84.5,117.5 C 85.5,117.5 86.5,117.5 87.5,117.5C 87.0137,115.193 87.0137,113.027 87.5,111C 85.8654,110.46 84.5321,110.96 83.5,112.5C 82.2888,111.726 82.2888,110.893 83.5,110C 90.39,108.725 93.0566,111.558 91.5,118.5C 88.9407,118.802 86.6074,118.468 84.5,117.5 Z"/></g>
<g><path style="opacity:1" fill="#b9956b" d="M 105.5,109.5 C 109.705,108.845 110.872,110.179 109,113.5C 107.617,110.924 106.783,111.258 106.5,114.5C 106.148,116.924 107.148,118.424 109.5,119C 102.03,118.424 100.697,115.257 105.5,109.5 Z"/></g>
<g><path style="opacity:1" fill="#c79a60" d="M 144.5,108.5 C 144.833,108.5 145.167,108.5 145.5,108.5C 144.391,111.733 143.558,115.066 143,118.5C 142,117.167 141,117.167 140,118.5C 139.506,116.866 139.34,115.199 139.5,113.5C 138.513,111.527 137.513,109.527 136.5,107.5C 137.723,106.386 139.056,106.219 140.5,107C 141.46,108.419 142.293,109.919 143,111.5C 144.039,110.756 144.539,109.756 144.5,108.5 Z"/></g>
<g><path style="opacity:1" fill="#b78f5e" d="M 97.5,106.5 C 98.8333,106.5 100.167,106.5 101.5,106.5C 101.5,110.5 101.5,114.5 101.5,118.5C 100.167,118.5 98.8333,118.5 97.5,118.5C 97.4847,107.915 96.8181,107.915 95.5,118.5C 92.0796,116.998 91.7463,114.998 94.5,112.5C 93.4775,110.105 94.4775,109.105 97.5,109.5C 97.5,108.5 97.5,107.5 97.5,106.5 Z"/></g>
<g><path style="opacity:1" fill="#896136" d="M 154.5,107.5 C 154.167,107.5 153.833,107.5 153.5,107.5C 152.036,108.405 150.702,108.405 149.5,107.5C 148.041,107.433 146.708,107.766 145.5,108.5C 145.167,108.5 144.833,108.5 144.5,108.5C 146.048,107.206 148.048,106.539 150.5,106.5C 153.795,106.225 155.129,106.558 154.5,107.5 Z"/></g>
<g><path style="opacity:1" fill="#a1744b" d="M 84.5,117.5 C 82.0459,117.321 79.8792,117.987 78,119.5C 76.699,119.361 75.8656,118.695 75.5,117.5C 78.2302,118.828 79.8968,117.828 80.5,114.5C 82.1173,114.669 83.784,115.003 85.5,115.5C 85.1373,116.183 84.8039,116.85 84.5,117.5 Z"/></g>
</svg>
